<svg id="Grupo_768" data-name="Grupo 768" xmlns="http://www.w3.org/2000/svg" xmlns:xlink="http://www.w3.org/1999/xlink" width="79.112" height="79.083" viewBox="0 0 79.112 79.083">
  <defs>
    <clipPath id="clip-path">
      <rect id="Rectángulo_350" data-name="Rectángulo 350" width="79.112" height="79.083" fill="#868d96"/>
    </clipPath>
  </defs>
  <g id="Grupo_767" data-name="Grupo 767" clip-path="url(#clip-path)">
    <path id="Trazado_706" data-name="Trazado 706" d="M80.282,140.912a5.1,5.1,0,0,1-3.8-3.865,5.871,5.871,0,0,1-.109-1.3q-.008-26.934,0-53.869a4.926,4.926,0,0,1,5.222-5.227q26.934-.008,53.869,0a4.927,4.927,0,0,1,5.222,5.227c.005,17.776-.027,35.552.032,53.329.01,2.92-1.324,4.923-3.943,5.707Zm28.247-4.994h26.086c1.024,0,1.026,0,1.026-1.007q0-26.124.017-52.248c0-.8-.236-.985-1-.984q-26.124.031-52.248,0c-.769,0-1.006.188-1,.985q.034,26.124.018,52.248c0,1,0,1.007,1.026,1.007h26.086" transform="translate(-61.606 -61.829)" fill="#868d96"/>
    <path id="Trazado_707" data-name="Trazado 707" d="M0,3.914A5.1,5.1,0,0,1,3.865.115a5.857,5.857,0,0,1,1.3-.109Q32.094,0,59.022,0A4.934,4.934,0,0,1,64.263,5.21c.007,1.337-.017,2.675.009,4.012.011.554-.166.789-.748.773q-1.774-.046-3.549,0c-.562.013-.781-.182-.766-.755.03-1.157-.011-2.315.015-3.472.012-.524-.155-.782-.7-.722a4.243,4.243,0,0,1-.463,0H6.131c-1.137,0-1.137,0-1.137,1.127q0,26,0,52c0,1.091,0,1.091,1.095,1.092,1.054,0,2.109.015,3.163,0,.491-.009.693.174.685.674q-.029,1.852,0,3.7c.008.5-.188.684-.682.678-1.569-.02-3.142.064-4.705-.034A4.785,4.785,0,0,1,.267,61.13c-.1-.235-.178-.482-.267-.723V3.914" transform="translate(0 -0.001)" fill="#868d96"/>
    <path id="Trazado_708" data-name="Trazado 708" d="M149.8,236.955q-9.8,0-19.6,0a2.516,2.516,0,0,1-2.445-3.547,3.07,3.07,0,0,1,.683-.925q7.229-7.229,14.46-14.455c1.3-1.3,2.693-1.274,4.055.074,2.377,2.351,4.75,4.706,7.083,7.1.56.575.9.555,1.412-.02.682-.767,1.433-1.475,2.175-2.189a2.642,2.642,0,0,1,4.134.01q4.7,4.681,9.383,9.384a2.619,2.619,0,0,1-.135,4.142,2.981,2.981,0,0,1-1.765.432q-9.721-.009-19.443,0" transform="translate(-102.88 -175.106)" fill="#868d96"/>
    <path id="Trazado_709" data-name="Trazado 709" d="M285.763,166.1a4.989,4.989,0,1,1-4.972,5.007,4.935,4.935,0,0,1,4.972-5.007" transform="translate(-226.51 -133.988)" fill="#868d96"/>
  </g>
</svg>
