<svg xmlns="http://www.w3.org/2000/svg" width="35" height="35" viewBox="0 0 35 35">
  <g id="Grupo_944" data-name="Grupo 944" transform="translate(-210 -205)">
    <circle id="Elipse_25" data-name="Elipse 25" cx="17.5" cy="17.5" r="17.5" transform="translate(210 205)" fill="#fff" opacity="0.7"/>
    <g id="Gráfico_torta" data-name="Gráfico torta" transform="translate(219.39 213.537)" opacity="0.3" style="mix-blend-mode: normal;isolation: isolate">
      <path id="Trazado_180" data-name="Trazado 180" d="M1283.762,384c0,.046.036.036.059.032a1.614,1.614,0,0,1,.435.041,3.306,3.306,0,0,1,.508.1c.267.077.536.147.8.243.2.073.39.16.59.226a.307.307,0,0,1,.08.047c.029.021.045.048.01.08s-.039.039-.059.059l-3.452,3.453a.32.32,0,0,0-.04.067l-.031-.019V384Z" transform="translate(-1273.621 -384)" fill="#220784"/>
      <path id="Trazado_181" data-name="Trazado 181" d="M1375.126,493.9h-4.354c.053-.051.088-.084.122-.117l3.382-3.381.023-.024c.1-.1.135-.1.186.032.089.23.177.46.259.693a3.869,3.869,0,0,1,.153.521.478.478,0,0,0,.058.159c.029.048-.011.112.034.17.032.041-.023.12.038.166-.022.1.054.188.032.286-.015.069.046.118.037.187a1.05,1.05,0,0,0,0,.2s.018.008.027.012Z" transform="translate(-1358.053 -485.867)" fill="#220784"/>
      <path id="Trazado_182" data-name="Trazado 182" d="M1074.137,432.608v7h7v.15c0,.217-.01.434,0,.65s-.036.412-.042.62c0,.064-.03.133-.027.2s-.046.139-.038.22a.512.512,0,0,1-.035.2c-.063.187-.085.384-.152.57s-.113.375-.177.56c-.039.111-.1.214-.141.325a4.1,4.1,0,0,1-.26.542,8.445,8.445,0,0,1-.537.863c-.131.18-.286.342-.406.53a.4.4,0,0,1-.047.048,2.8,2.8,0,0,0-.309.338.29.29,0,0,1-.147.124c-.042.014-.072.067-.107.1a6.714,6.714,0,0,1-1.019.8,8.036,8.036,0,0,1-1.118.6,4.75,4.75,0,0,1-.843.3c-.133.033-.269.07-.4.115a1.134,1.134,0,0,1-.215.041,1.981,1.981,0,0,1-.472.071c-.1.054-.205.012-.3.036a2.682,2.682,0,0,1-.6.029c-.206.006-.411-.005-.616,0-.084,0-.152-.046-.237-.04s-.163.033-.237-.028c-.013-.011-.043,0-.065,0a1.08,1.08,0,0,1-.325-.06c-.075-.023-.155-.008-.235-.035-.151-.052-.31-.082-.464-.126s-.307-.09-.457-.145a3.064,3.064,0,0,1-.389-.146c-.146-.078-.3-.125-.448-.208s-.267-.162-.4-.231a6.02,6.02,0,0,1-.555-.349,3.819,3.819,0,0,1-.32-.234,7.658,7.658,0,0,1-.855-.79,8.359,8.359,0,0,1-.572-.694c-.115-.158-.217-.324-.335-.48a2.762,2.762,0,0,1-.149-.255,6.408,6.408,0,0,1-.392-.787,5.7,5.7,0,0,1-.268-.738,3.735,3.735,0,0,1-.144-.574c-.067-.086-.028-.194-.058-.292a1.925,1.925,0,0,1-.049-.3,3.017,3.017,0,0,0-.03-.336,2.83,2.83,0,0,1-.027-.621,4.5,4.5,0,0,1,0-.633,5.642,5.642,0,0,1,.067-.588c.028-.131.051-.265.087-.4.028-.1.049-.213.072-.321a5.764,5.764,0,0,1,.183-.625,7.337,7.337,0,0,1,.521-1.134,6.272,6.272,0,0,1,.548-.84,4.709,4.709,0,0,1,.533-.628,1.7,1.7,0,0,0,.127-.165c.076-.087.181-.137.26-.221a1.193,1.193,0,0,1,.253-.23,1.946,1.946,0,0,0,.222-.187c.177-.144.369-.265.552-.4a2.748,2.748,0,0,1,.252-.159c.244-.142.5-.269.754-.391.162-.077.331-.139.5-.2s.34-.12.511-.172c.138-.042.282-.069.423-.107a3.729,3.729,0,0,1,.509-.1,1.417,1.417,0,0,1,.419-.04,2.125,2.125,0,0,1,.6-.032C1073.709,432.6,1073.914,432.608,1074.137,432.608Z" transform="translate(-1066.094 -430.575)" fill="#220784"/>
      <path id="Trazado_183" data-name="Trazado 183" d="M1287.128,412.844a7.676,7.676,0,0,1,.921.674.251.251,0,0,1,0,.028.027.027,0,0,1,0,.014l-5.412,5.413a.148.148,0,0,1-.015-.1c0-.466,0-.933,0-1.4a.253.253,0,0,1,.083-.2q1.469-1.463,2.934-2.931Z" transform="translate(-1273.575 -411.64)" fill="#220784"/>
      <path id="Trazado_184" data-name="Trazado 184" d="M1299.072,451.719l5.433-5.433a4.442,4.442,0,0,1,.715.916q-2.208,2.208-4.414,4.418a.307.307,0,0,1-.243.1C1300.074,451.716,1299.586,451.719,1299.072,451.719Z" transform="translate(-1289.347 -443.686)" fill="#220784"/>
    </g>
  </g>
</svg>
