<svg xmlns="http://www.w3.org/2000/svg" width="35" height="35" viewBox="0 0 35 35">
  <g id="Grupo_942" data-name="Grupo 942" transform="translate(-210 -150)">
    <circle id="Elipse_22" data-name="Elipse 22" cx="17.5" cy="17.5" r="17.5" transform="translate(210 150)" fill="#fff" opacity="0.7"/>
    <g id="Agente" transform="translate(220.244 158.537)" opacity="0.3">
      <path id="Trazado_187" data-name="Trazado 187" d="M269.76,440.3a4.9,4.9,0,0,1,.935.228,4.141,4.141,0,0,1,.382,7.6,4.121,4.121,0,0,1-4.755-.839,4.077,4.077,0,0,1-.562-5.045,4,4,0,0,1,2.888-1.918c.038-.006.075-.017.112-.026Z" transform="translate(-262.246 -440.303)" fill="#220784"/>
      <path id="Trazado_188" data-name="Trazado 188" d="M203.059,646.2c-1.438,0-2.876.01-4.314,0a2.839,2.839,0,0,1-1.814-.652,2.654,2.654,0,0,1-.985-2,9.782,9.782,0,0,1,.367-3.26,4.62,4.62,0,0,1,1.11-2.023,3.113,3.113,0,0,1,2.273-.907,1.028,1.028,0,0,1,.54.2c.232.141.458.294.688.439a3.918,3.918,0,0,0,2.3.658,3.978,3.978,0,0,0,1.927-.622,4.735,4.735,0,0,0,.5-.327,1.67,1.67,0,0,1,1.526-.272,3.215,3.215,0,0,1,2.169,1.7,7.4,7.4,0,0,1,.775,2.685,11.655,11.655,0,0,1,.067,1.66,2.757,2.757,0,0,1-2.469,2.7,5.714,5.714,0,0,1-.631.031h-4.031Z" transform="translate(-195.933 -629.129)" fill="#220784"/>
    </g>
  </g>
</svg>
