<svg id="Grupo_937" data-name="Grupo 937" xmlns="http://www.w3.org/2000/svg" xmlns:xlink="http://www.w3.org/1999/xlink" width="50.42" height="50.42" viewBox="0 0 50.42 50.42">
  <defs>
    <clipPath id="clip-path">
      <rect id="Rect치ngulo_65" data-name="Rect치ngulo 65" width="50.42" height="50.42" fill="#f8fdff"/>
    </clipPath>
    <clipPath id="clip-path-2">
      <path id="Trazado_668" data-name="Trazado 668" d="M16.281,46.353a22.96,22.96,0,0,1,0-42.285A22.951,22.951,0,0,1,34.14,46.353a23.028,23.028,0,0,1-17.859,0M25.21,0A25.21,25.21,0,1,0,50.42,25.21,25.211,25.211,0,0,0,25.21,0Z" fill="#f8fdff"/>
    </clipPath>
  </defs>
  <g id="Grupo_33" data-name="Grupo 33">
    <g id="Grupo_32" data-name="Grupo 32" clip-path="url(#clip-path)">
      <path id="Trazado_666" data-name="Trazado 666" d="M27.788,43.4l-7.233,2.633c.118.317.226.608.335.91l7.228-2.631c-.113-.319-.218-.608-.33-.912m-5.767,6.653c.173.472.334.918.5,1.38l.5-.179q4.662-1.7,9.323-3.394c.262-.1.262-.094.359.168q.472,1.3.947,2.6c.024.068.046.134.07.212a1.27,1.27,0,0,1-.129.066q-5.1,1.86-10.207,3.716a4.782,4.782,0,0,1-2.981.162,2.6,2.6,0,0,1-1.848-1.706q-1.1-3.064-2.224-6.117A2.74,2.74,0,0,1,18,43.277Q22.5,41.611,27.016,40a4.278,4.278,0,0,1,3.06-.026,2.565,2.565,0,0,1,1.551,1.513c.483,1.26.934,2.533,1.4,3.8.079.217.155.433.243.672-3.753,1.365-7.488,2.725-11.248,4.094" transform="translate(-8.978 -22.113)" fill="#f8fdff"/>
      <path id="Trazado_667" data-name="Trazado 667" d="M71.14,46.044l-7.233-2.633c-.111.311-.218.6-.33.914l7.231,2.631c.113-.313.218-.6.332-.912m-1.968,5.4.472-1.291c.044-.12-.059-.124-.124-.146-.787-.291-1.575-.575-2.362-.862l-8.586-3.123c-.044-.016-.083-.039-.14-.066.144-.4.284-.787.427-1.177.35-.962.722-1.914,1.043-2.885A3.037,3.037,0,0,1,63,39.73a5.252,5.252,0,0,1,1.9.352q4.35,1.585,8.7,3.167a2.869,2.869,0,0,1,1.894,1.964,2.718,2.718,0,0,1-.1,1.686c-.669,1.861-1.349,3.722-2.027,5.581a9.908,9.908,0,0,1-.392,1,2.619,2.619,0,0,1-1.949,1.387,5.16,5.16,0,0,1-2.906-.3q-5-1.824-9.991-3.637c-.147-.052-.14-.12-.1-.238.334-.906.667-1.809.988-2.718.057-.155.114-.182.269-.125q4.1,1.5,8.215,2.992l1.673.608" transform="translate(-32.304 -22.128)" fill="#f8fdff"/>
    </g>
  </g>
  <g id="Grupo_35" data-name="Grupo 35">
    <g id="Grupo_34" data-name="Grupo 34" clip-path="url(#clip-path-2)">
      <rect id="Rect치ngulo_66" data-name="Rect치ngulo 66" width="50.42" height="50.42" transform="translate(0 0)" fill="#f8fdff"/>
    </g>
  </g>
</svg>
