<svg xmlns="http://www.w3.org/2000/svg" width="25" height="25" viewBox="0 0 25 25">
  <g id="Grupo_958" data-name="Grupo 958" transform="translate(-100 -428)">
    <circle id="Elipse_21" data-name="Elipse 21" cx="12.5" cy="12.5" r="12.5" transform="translate(100 428)" fill="#ff6565" opacity="0.8"/>
    <g id="basura" transform="translate(106.232 432.781)">
      <path id="Trazado_692" data-name="Trazado 692" d="M59.633,1.98H56.91v-.5A1.485,1.485,0,0,0,55.425,0h-1.98A1.485,1.485,0,0,0,51.96,1.485v.5H49.238A1.238,1.238,0,0,0,48,3.218v.99a.5.5,0,0,0,.5.5h11.88a.5.5,0,0,0,.5-.5v-.99A1.238,1.238,0,0,0,59.633,1.98Zm-6.683-.5a.5.5,0,0,1,.5-.5h1.98a.5.5,0,0,1,.5.5v.5H52.95Z" transform="translate(-48)" fill="#fff"/>
      <path id="Trazado_693" data-name="Trazado 693" d="M73.519,184a.155.155,0,0,0-.155.162l.408,8.571a1.483,1.483,0,0,0,1.483,1.414h7.517a1.483,1.483,0,0,0,1.483-1.414l.408-8.571A.155.155,0,0,0,84.51,184Zm7.476,1.237a.5.5,0,0,1,.99,0v6.435a.5.5,0,0,1-.99,0Zm-2.475,0a.5.5,0,0,1,.99,0v6.435a.5.5,0,0,1-.99,0Zm-2.475,0a.5.5,0,0,1,.99,0v6.435a.5.5,0,0,1-.99,0Z" transform="translate(-72.579 -178.307)" fill="#fff"/>
    </g>
  </g>
</svg>
