<svg xmlns="http://www.w3.org/2000/svg" xmlns:xlink="http://www.w3.org/1999/xlink" width="107.803" height="13.444" viewBox="0 0 107.803 13.444">
  <defs>
    <linearGradient id="linear-gradient" x1="0.128" y1="0.792" x2="0.897" y2="0.246" gradientUnits="objectBoundingBox">
      <stop offset="0" stop-color="#ed12ab"/>
      <stop offset="0.532" stop-color="#730b94"/>
      <stop offset="1" stop-color="#220784"/>
    </linearGradient>
    <clipPath id="clip-path">
      <rect id="Rectángulo_65" data-name="Rectángulo 65" width="13.444" height="13.444" fill="#220784"/>
    </clipPath>
    <clipPath id="clip-path-2">
      <path id="Trazado_668" data-name="Trazado 668" d="M4.341,12.359a6.122,6.122,0,0,1,0-11.274A6.119,6.119,0,0,1,9.1,12.359a6.14,6.14,0,0,1-4.762,0M6.722,0a6.722,6.722,0,1,0,6.722,6.722A6.722,6.722,0,0,0,6.722,0Z" fill="url(#linear-gradient)"/>
    </clipPath>
  </defs>
  <g id="Grupo_951" data-name="Grupo 951" transform="translate(-629.099 -726)">
    <text id="Text_State" data-name="Text State" transform="translate(649.901 736)" fill="#403e45" font-size="8" font-family="TitilliumWeb-Regular, Titillium Web"><tspan x="0" y="0">Diseñado por Neering Spa</tspan></text>
    <g id="Grupo_935" data-name="Grupo 935" transform="translate(629.099 726)">
      <g id="Grupo_33" data-name="Grupo 33">
        <g id="Grupo_32" data-name="Grupo 32" clip-path="url(#clip-path)">
          <path id="Trazado_666" data-name="Trazado 666" d="M19.231,40.687l-1.928.7c.032.085.06.162.089.243l1.927-.7c-.03-.085-.058-.162-.088-.243m-1.538,1.774.134.368.132-.048,2.486-.9c.07-.026.07-.025.1.045l.252.693c.006.018.012.036.019.057a.338.338,0,0,1-.034.017l-2.721.991a1.275,1.275,0,0,1-.795.043.694.694,0,0,1-.493-.455q-.294-.817-.593-1.631a.731.731,0,0,1,.445-.981q1.2-.444,2.4-.874a1.141,1.141,0,0,1,.816-.007.684.684,0,0,1,.413.4c.129.336.249.675.373,1.013l.065.179-3,1.092" transform="translate(-14.215 -35.012)" fill="#220784"/>
          <path id="Trazado_667" data-name="Trazado 667" d="M61.5,41.413l-1.928-.7-.088.244,1.928.7.089-.243m-.525,1.44.126-.344c.012-.032-.016-.033-.033-.039-.21-.078-.42-.153-.63-.23l-2.289-.833c-.012,0-.022-.011-.037-.017l.114-.314c.093-.257.192-.51.278-.769a.81.81,0,0,1,.825-.578,1.4,1.4,0,0,1,.507.094l2.32.844a.765.765,0,0,1,.5.524.725.725,0,0,1-.028.45c-.178.5-.36.992-.541,1.488a2.642,2.642,0,0,1-.1.265.7.7,0,0,1-.52.37,1.376,1.376,0,0,1-.775-.079l-2.664-.97c-.039-.014-.037-.032-.026-.064.089-.241.178-.482.264-.725.015-.041.03-.048.072-.033q1.094.4,2.19.8l.446.162" transform="translate(-51.148 -35.036)" fill="#220784"/>
        </g>
      </g>
      <g id="Grupo_35" data-name="Grupo 35">
        <g id="Grupo_34" data-name="Grupo 34" clip-path="url(#clip-path-2)">
          <rect id="Rectángulo_66" data-name="Rectángulo 66" width="13.444" height="13.444" transform="translate(0 0)" fill="url(#linear-gradient)"/>
        </g>
      </g>
    </g>
  </g>
</svg>
