<svg xmlns="http://www.w3.org/2000/svg" width="35" height="35" viewBox="0 0 35 35">
  <g id="Grupo_943" data-name="Grupo 943" transform="translate(-210 -95)">
    <circle id="Elipse_26" data-name="Elipse 26" cx="17.5" cy="17.5" r="17.5" transform="translate(210 95)" fill="#fff" opacity="0.7"/>
    <g id="Incio" transform="translate(218.537 104.39)" opacity="0.3" style="mix-blend-mode: normal;isolation: isolate">
      <path id="Trazado_195" data-name="Trazado 195" d="M743.429,128.04H740a.654.654,0,0,1-.38-.66c.007-1.509,0-3.019,0-4.528,0-.264-.034-.3-.3-.3h-2.9c-.287,0-.315.028-.315.314,0,1.5,0,3.008,0,4.511a.653.653,0,0,1-.38.66H732.3a1.091,1.091,0,0,1-.846-1.178q0-3.2,0-6.391c0-.21-.009-.219-.214-.22-.3,0-.6,0-.9,0a.949.949,0,0,1-1.006-.7v-.433a1.32,1.32,0,0,1,.36-.531q3.848-3.686,7.693-7.375a.588.588,0,0,1,.943-.007l2.228,2.054c.03.028.051.076.122.06,0-.33,0-.662,0-.994a.573.573,0,0,1,.648-.644q1.149,0,2.3,0a.564.564,0,0,1,.641.645q0,2.165,0,4.33a.429.429,0,0,0,.14.336c.561.546,1.115,1.1,1.674,1.646a.92.92,0,0,1-.661,1.616c-.3,0-.6,0-.9,0-.252,0-.252,0-.252.249q0,3.181,0,6.361A1.091,1.091,0,0,1,743.429,128.04Z" transform="translate(-729.34 -110.967)" fill="#220784"/>
    </g>
  </g>
</svg>
