<svg xmlns="http://www.w3.org/2000/svg" xmlns:xlink="http://www.w3.org/1999/xlink" width="30.323" height="30.312" viewBox="0 0 30.323 30.312">
  <defs>
    <clipPath id="clip-path">
      <rect id="Rectángulo_350" data-name="Rectángulo 350" width="30.323" height="30.312" fill="#868d96"/>
    </clipPath>
  </defs>
  <g id="Grupo_960" data-name="Grupo 960" transform="translate(-125.34 -519.399)">
    <g id="Grupo_768" data-name="Grupo 768" transform="translate(125.34 519.399)">
      <g id="Grupo_767" data-name="Grupo 767" transform="translate(0 0)" clip-path="url(#clip-path)">
        <path id="Trazado_706" data-name="Trazado 706" d="M77.869,101.279A1.956,1.956,0,0,1,76.413,99.8a2.25,2.25,0,0,1-.042-.5q0-10.324,0-20.648a1.888,1.888,0,0,1,2-2q10.324,0,20.648,0a1.888,1.888,0,0,1,2,2c0,6.813-.01,13.627.012,20.441a2.062,2.062,0,0,1-1.511,2.187ZM88.7,99.365h10c.392,0,.393,0,.393-.386q0-10.013.007-20.026c0-.305-.091-.378-.385-.377q-10.013.012-20.026,0c-.295,0-.386.072-.385.377q.013,10.013.007,20.026c0,.385,0,.386.393.386h10" transform="translate(-70.71 -70.966)" fill="#868d96"/>
        <path id="Trazado_707" data-name="Trazado 707" d="M0,1.5A1.955,1.955,0,0,1,1.481.044,2.245,2.245,0,0,1,1.98,0Q12.3,0,22.623,0a1.891,1.891,0,0,1,2.009,2c0,.513-.006,1.025,0,1.538,0,.212-.064.3-.287.3q-.68-.018-1.36,0c-.215.005-.3-.07-.294-.29.011-.443,0-.887.006-1.331,0-.2-.059-.3-.27-.277a1.626,1.626,0,0,1-.177,0H2.35c-.436,0-.436,0-.436.432q0,9.967,0,19.933c0,.418,0,.418.42.419s.808.006,1.212,0c.188,0,.266.067.263.259q-.011.71,0,1.419c0,.191-.072.262-.261.26-.6-.008-1.2.024-1.8-.013A1.834,1.834,0,0,1,.1,23.431c-.039-.09-.068-.185-.1-.277V1.5" transform="translate(0 -0.001)" fill="#868d96"/>
        <path id="Trazado_708" data-name="Trazado 708" d="M136.07,224.691q-3.756,0-7.511,0a.964.964,0,0,1-.937-1.359,1.176,1.176,0,0,1,.262-.355q2.771-2.771,5.542-5.54a.985.985,0,0,1,1.554.028c.911.9,1.821,1.8,2.715,2.722.215.22.345.213.541-.008.262-.294.549-.566.834-.839a1.013,1.013,0,0,1,1.585,0q1.8,1.794,3.6,3.6a1,1,0,0,1-.052,1.588,1.143,1.143,0,0,1-.676.166q-3.726,0-7.452,0" transform="translate(-118.085 -200.985)" fill="#868d96"/>
        <path id="Trazado_709" data-name="Trazado 709" d="M282.7,166.1a1.912,1.912,0,1,1-1.906,1.919A1.892,1.892,0,0,1,282.7,166.1" transform="translate(-259.986 -153.791)" fill="#868d96"/>
      </g>
    </g>
  </g>
</svg>
